<svg width="40" height="40" viewBox="0 0 40 40" fill="none" xmlns="http://www.w3.org/2000/svg">
<g clip-path="url(#clip0_261_4843)">
<path d="M11.6663 31.6667C13.5073 31.6667 14.9997 30.1743 14.9997 28.3333C14.9997 26.4924 13.5073 25 11.6663 25C9.82539 25 8.33301 26.4924 8.33301 28.3333C8.33301 30.1743 9.82539 31.6667 11.6663 31.6667Z" stroke="black" stroke-width="2" stroke-linecap="round" stroke-linejoin="round"/>
<path d="M28.3333 31.6667C30.1743 31.6667 31.6667 30.1743 31.6667 28.3333C31.6667 26.4924 30.1743 25 28.3333 25C26.4924 25 25 26.4924 25 28.3333C25 30.1743 26.4924 31.6667 28.3333 31.6667Z" stroke="black" stroke-width="2" stroke-linecap="round" stroke-linejoin="round"/>
<path d="M8.33301 28.3335H6.99967C5.8951 28.3335 4.99967 27.4381 4.99967 26.3335V21.6668M3.33301 8.3335H19.6663C20.7709 8.3335 21.6663 9.22893 21.6663 10.3335V28.3335M14.9997 28.3335H24.9997M21.6663 10.0002H28.8673C29.5698 10.0002 30.2208 10.3688 30.5823 10.9712L34.9997 18.3335V26.3335C34.9997 27.4381 34.1042 28.3335 32.9997 28.3335H31.6663M34.9997 18.3335H21.6663" stroke="black" stroke-width="2" stroke-linecap="round" stroke-linejoin="round"/>
<path d="M8 28H6.66667C5.5621 28 4.66667 27.1046 4.66667 26V21.3333M3 8H19.3333C20.4379 8 21.3333 8.89543 21.3333 10V28M15 28H24.6667M21.3333 9.66667H28.5343C29.2368 9.66667 29.8878 10.0353 30.2493 10.6377L34.6667 18V26C34.6667 27.1046 33.7712 28 32.6667 28H32M34.6667 18H21.3333" stroke="black" stroke-width="2" stroke-linecap="round" stroke-linejoin="round"/>
<path d="M5 11.8182H11.6667" stroke="black" stroke-width="2" stroke-linecap="round" stroke-linejoin="round"/>
<path d="M1.81836 15.4545H8.48503" stroke="black" stroke-width="2" stroke-linecap="round" stroke-linejoin="round"/>
<path d="M5 19.0909H11.6667" stroke="black" stroke-width="2" stroke-linecap="round" stroke-linejoin="round"/>
</g>
<defs>
<clipPath id="clip0_261_4843">
<rect width="40" height="40" fill="white"/>
</clipPath>
</defs>
</svg>
